<mxfile host="app.diagrams.net" agent="Mozilla/5.0 (Windows NT 10.0; Win64; x64) AppleWebKit/537.36 (KHTML, like Gecko) Chrome/132.0.0.0 Safari/537.36" version="26.0.10">
  <diagram name="PÃ¡gina-1" id="hoWIpcDCquGzCfxJ8-PZ">
    <mxGraphModel dx="880" dy="434" grid="1" gridSize="10" guides="1" tooltips="1" connect="1" arrows="1" fold="1" page="1" pageScale="1" pageWidth="827" pageHeight="1169" math="0" shadow="0">
      <root>
        <mxCell id="0" />
        <mxCell id="1" parent="0" />
        <mxCell id="QpnUCRbKRPAIzIrftrcw-30" style="edgeStyle=orthogonalEdgeStyle;rounded=0;orthogonalLoop=1;jettySize=auto;html=1;exitX=0.5;exitY=1;exitDx=0;exitDy=0;exitPerimeter=0;entryX=0.5;entryY=0;entryDx=0;entryDy=0;" edge="1" parent="1" source="QpnUCRbKRPAIzIrftrcw-1" target="QpnUCRbKRPAIzIrftrcw-2">
          <mxGeometry relative="1" as="geometry" />
        </mxCell>
        <mxCell id="QpnUCRbKRPAIzIrftrcw-1" value="INICIO" style="strokeWidth=2;html=1;shape=mxgraph.flowchart.start_1;whiteSpace=wrap;" vertex="1" parent="1">
          <mxGeometry x="351" y="20" width="126" height="80" as="geometry" />
        </mxCell>
        <mxCell id="QpnUCRbKRPAIzIrftrcw-31" style="edgeStyle=orthogonalEdgeStyle;rounded=0;orthogonalLoop=1;jettySize=auto;html=1;exitX=0.5;exitY=1;exitDx=0;exitDy=0;entryX=0.5;entryY=0;entryDx=0;entryDy=0;" edge="1" parent="1" source="QpnUCRbKRPAIzIrftrcw-2" target="QpnUCRbKRPAIzIrftrcw-3">
          <mxGeometry relative="1" as="geometry" />
        </mxCell>
        <mxCell id="QpnUCRbKRPAIzIrftrcw-2" value="ALTURA, SEXO, PESO&amp;nbsp;" style="shape=parallelogram;html=1;strokeWidth=2;perimeter=parallelogramPerimeter;whiteSpace=wrap;rounded=1;arcSize=12;size=0.23;" vertex="1" parent="1">
          <mxGeometry x="241" y="120" width="346" height="50" as="geometry" />
        </mxCell>
        <mxCell id="QpnUCRbKRPAIzIrftrcw-3" value="ENQUANTO ALTURA &amp;gt; 0 OU SEXO =! &quot; &quot;" style="rounded=1;whiteSpace=wrap;html=1;absoluteArcSize=1;arcSize=14;strokeWidth=2;" vertex="1" parent="1">
          <mxGeometry x="261" y="190" width="306" height="40" as="geometry" />
        </mxCell>
        <mxCell id="QpnUCRbKRPAIzIrftrcw-4" value="&lt;div&gt;&lt;br&gt;&lt;/div&gt;DIGITE ALTURA (OU 0 PARA SAIR)" style="html=1;strokeWidth=2;shape=manualInput;whiteSpace=wrap;rounded=1;size=26;arcSize=11;" vertex="1" parent="1">
          <mxGeometry x="336" y="250" width="156" height="70" as="geometry" />
        </mxCell>
        <mxCell id="QpnUCRbKRPAIzIrftrcw-5" value="ALTURA = 0 ?" style="strokeWidth=2;html=1;shape=mxgraph.flowchart.decision;whiteSpace=wrap;" vertex="1" parent="1">
          <mxGeometry x="349" y="340" width="130" height="130" as="geometry" />
        </mxCell>
        <mxCell id="QpnUCRbKRPAIzIrftrcw-6" value="&lt;div&gt;&lt;br&gt;&lt;/div&gt;&lt;div&gt;DIGITE O SEXO (HOMEM OU MULHER)&lt;/div&gt;" style="html=1;strokeWidth=2;shape=manualInput;whiteSpace=wrap;rounded=1;size=26;arcSize=11;" vertex="1" parent="1">
          <mxGeometry x="336" y="480" width="156" height="70" as="geometry" />
        </mxCell>
        <mxCell id="QpnUCRbKRPAIzIrftrcw-25" style="edgeStyle=orthogonalEdgeStyle;rounded=0;orthogonalLoop=1;jettySize=auto;html=1;exitX=1;exitY=0.5;exitDx=0;exitDy=0;exitPerimeter=0;" edge="1" parent="1" source="QpnUCRbKRPAIzIrftrcw-7" target="QpnUCRbKRPAIzIrftrcw-24">
          <mxGeometry relative="1" as="geometry" />
        </mxCell>
        <mxCell id="QpnUCRbKRPAIzIrftrcw-26" value="SIM" style="edgeLabel;html=1;align=center;verticalAlign=middle;resizable=0;points=[];" vertex="1" connectable="0" parent="QpnUCRbKRPAIzIrftrcw-25">
          <mxGeometry x="0.0178" y="2" relative="1" as="geometry">
            <mxPoint as="offset" />
          </mxGeometry>
        </mxCell>
        <mxCell id="QpnUCRbKRPAIzIrftrcw-7" value="SEXO = &quot; &quot; ?" style="strokeWidth=2;html=1;shape=mxgraph.flowchart.decision;whiteSpace=wrap;" vertex="1" parent="1">
          <mxGeometry x="349" y="570" width="130" height="130" as="geometry" />
        </mxCell>
        <mxCell id="QpnUCRbKRPAIzIrftrcw-20" style="edgeStyle=orthogonalEdgeStyle;rounded=0;orthogonalLoop=1;jettySize=auto;html=1;exitX=1;exitY=0.5;exitDx=0;exitDy=0;exitPerimeter=0;entryX=0;entryY=0.5;entryDx=0;entryDy=0;" edge="1" parent="1" source="QpnUCRbKRPAIzIrftrcw-8" target="QpnUCRbKRPAIzIrftrcw-9">
          <mxGeometry relative="1" as="geometry" />
        </mxCell>
        <mxCell id="QpnUCRbKRPAIzIrftrcw-21" value="SIM" style="edgeLabel;html=1;align=center;verticalAlign=middle;resizable=0;points=[];" vertex="1" connectable="0" parent="QpnUCRbKRPAIzIrftrcw-20">
          <mxGeometry x="-0.1707" y="3" relative="1" as="geometry">
            <mxPoint as="offset" />
          </mxGeometry>
        </mxCell>
        <mxCell id="QpnUCRbKRPAIzIrftrcw-22" style="edgeStyle=orthogonalEdgeStyle;rounded=0;orthogonalLoop=1;jettySize=auto;html=1;exitX=0;exitY=0.5;exitDx=0;exitDy=0;exitPerimeter=0;entryX=1;entryY=0.5;entryDx=0;entryDy=0;" edge="1" parent="1" source="QpnUCRbKRPAIzIrftrcw-8" target="QpnUCRbKRPAIzIrftrcw-10">
          <mxGeometry relative="1" as="geometry" />
        </mxCell>
        <mxCell id="QpnUCRbKRPAIzIrftrcw-23" value="NAO" style="edgeLabel;html=1;align=center;verticalAlign=middle;resizable=0;points=[];" vertex="1" connectable="0" parent="QpnUCRbKRPAIzIrftrcw-22">
          <mxGeometry x="-0.1282" y="-4" relative="1" as="geometry">
            <mxPoint as="offset" />
          </mxGeometry>
        </mxCell>
        <mxCell id="QpnUCRbKRPAIzIrftrcw-8" value="SEXO = HOMEM ?" style="strokeWidth=2;html=1;shape=mxgraph.flowchart.decision;whiteSpace=wrap;" vertex="1" parent="1">
          <mxGeometry x="349" y="720" width="130" height="130" as="geometry" />
        </mxCell>
        <mxCell id="QpnUCRbKRPAIzIrftrcw-9" value="PESO = (72.7 * ALTURA) - 58" style="rounded=1;whiteSpace=wrap;html=1;absoluteArcSize=1;arcSize=14;strokeWidth=2;" vertex="1" parent="1">
          <mxGeometry x="520" y="765" width="190" height="40" as="geometry" />
        </mxCell>
        <mxCell id="QpnUCRbKRPAIzIrftrcw-10" value="PESO = (62.1 * ALTURA) - 44.7" style="rounded=1;whiteSpace=wrap;html=1;absoluteArcSize=1;arcSize=14;strokeWidth=2;" vertex="1" parent="1">
          <mxGeometry x="120" y="765" width="190" height="40" as="geometry" />
        </mxCell>
        <mxCell id="QpnUCRbKRPAIzIrftrcw-11" value="" style="strokeWidth=2;html=1;shape=mxgraph.flowchart.start_2;whiteSpace=wrap;" vertex="1" parent="1">
          <mxGeometry x="399" y="880" width="30" height="30" as="geometry" />
        </mxCell>
        <mxCell id="QpnUCRbKRPAIzIrftrcw-12" value="FIM" style="strokeWidth=2;html=1;shape=mxgraph.flowchart.start_1;whiteSpace=wrap;" vertex="1" parent="1">
          <mxGeometry x="351" y="1060" width="126" height="80" as="geometry" />
        </mxCell>
        <mxCell id="QpnUCRbKRPAIzIrftrcw-13" value="PESO" style="strokeWidth=2;html=1;shape=mxgraph.flowchart.display;whiteSpace=wrap;" vertex="1" parent="1">
          <mxGeometry x="339" y="940" width="150" height="90" as="geometry" />
        </mxCell>
        <mxCell id="QpnUCRbKRPAIzIrftrcw-16" style="edgeStyle=orthogonalEdgeStyle;rounded=0;orthogonalLoop=1;jettySize=auto;html=1;exitX=0.5;exitY=1;exitDx=0;exitDy=0;exitPerimeter=0;entryX=0.5;entryY=0;entryDx=0;entryDy=0;entryPerimeter=0;" edge="1" parent="1" source="QpnUCRbKRPAIzIrftrcw-13" target="QpnUCRbKRPAIzIrftrcw-12">
          <mxGeometry relative="1" as="geometry" />
        </mxCell>
        <mxCell id="QpnUCRbKRPAIzIrftrcw-17" style="edgeStyle=orthogonalEdgeStyle;rounded=0;orthogonalLoop=1;jettySize=auto;html=1;exitX=0.5;exitY=1;exitDx=0;exitDy=0;entryX=0;entryY=0.5;entryDx=0;entryDy=0;entryPerimeter=0;" edge="1" parent="1" source="QpnUCRbKRPAIzIrftrcw-10" target="QpnUCRbKRPAIzIrftrcw-11">
          <mxGeometry relative="1" as="geometry" />
        </mxCell>
        <mxCell id="QpnUCRbKRPAIzIrftrcw-18" style="edgeStyle=orthogonalEdgeStyle;rounded=0;orthogonalLoop=1;jettySize=auto;html=1;exitX=0.5;exitY=1;exitDx=0;exitDy=0;entryX=1;entryY=0.5;entryDx=0;entryDy=0;entryPerimeter=0;" edge="1" parent="1" source="QpnUCRbKRPAIzIrftrcw-9" target="QpnUCRbKRPAIzIrftrcw-11">
          <mxGeometry relative="1" as="geometry" />
        </mxCell>
        <mxCell id="QpnUCRbKRPAIzIrftrcw-19" style="edgeStyle=orthogonalEdgeStyle;rounded=0;orthogonalLoop=1;jettySize=auto;html=1;exitX=0.5;exitY=1;exitDx=0;exitDy=0;exitPerimeter=0;entryX=0.5;entryY=0;entryDx=0;entryDy=0;entryPerimeter=0;" edge="1" parent="1" source="QpnUCRbKRPAIzIrftrcw-11" target="QpnUCRbKRPAIzIrftrcw-13">
          <mxGeometry relative="1" as="geometry" />
        </mxCell>
        <mxCell id="QpnUCRbKRPAIzIrftrcw-24" value="" style="strokeWidth=2;html=1;shape=mxgraph.flowchart.start_2;whiteSpace=wrap;" vertex="1" parent="1">
          <mxGeometry x="760" y="620" width="30" height="30" as="geometry" />
        </mxCell>
        <mxCell id="QpnUCRbKRPAIzIrftrcw-27" style="edgeStyle=orthogonalEdgeStyle;rounded=0;orthogonalLoop=1;jettySize=auto;html=1;exitX=1;exitY=0.5;exitDx=0;exitDy=0;exitPerimeter=0;entryX=0.5;entryY=0;entryDx=0;entryDy=0;entryPerimeter=0;" edge="1" parent="1" source="QpnUCRbKRPAIzIrftrcw-5" target="QpnUCRbKRPAIzIrftrcw-24">
          <mxGeometry relative="1" as="geometry" />
        </mxCell>
        <mxCell id="QpnUCRbKRPAIzIrftrcw-28" value="SIM" style="edgeLabel;html=1;align=center;verticalAlign=middle;resizable=0;points=[];" vertex="1" connectable="0" parent="QpnUCRbKRPAIzIrftrcw-27">
          <mxGeometry x="-0.4129" y="3" relative="1" as="geometry">
            <mxPoint as="offset" />
          </mxGeometry>
        </mxCell>
        <mxCell id="QpnUCRbKRPAIzIrftrcw-32" style="edgeStyle=orthogonalEdgeStyle;rounded=0;orthogonalLoop=1;jettySize=auto;html=1;exitX=0.5;exitY=1;exitDx=0;exitDy=0;entryX=0.462;entryY=0.214;entryDx=0;entryDy=0;entryPerimeter=0;" edge="1" parent="1" source="QpnUCRbKRPAIzIrftrcw-3" target="QpnUCRbKRPAIzIrftrcw-4">
          <mxGeometry relative="1" as="geometry" />
        </mxCell>
        <mxCell id="QpnUCRbKRPAIzIrftrcw-33" style="edgeStyle=orthogonalEdgeStyle;rounded=0;orthogonalLoop=1;jettySize=auto;html=1;exitX=0.5;exitY=1;exitDx=0;exitDy=0;entryX=0.5;entryY=0;entryDx=0;entryDy=0;entryPerimeter=0;" edge="1" parent="1" source="QpnUCRbKRPAIzIrftrcw-4" target="QpnUCRbKRPAIzIrftrcw-5">
          <mxGeometry relative="1" as="geometry" />
        </mxCell>
        <mxCell id="QpnUCRbKRPAIzIrftrcw-34" style="edgeStyle=orthogonalEdgeStyle;rounded=0;orthogonalLoop=1;jettySize=auto;html=1;exitX=0.5;exitY=1;exitDx=0;exitDy=0;exitPerimeter=0;entryX=0.5;entryY=0.143;entryDx=0;entryDy=0;entryPerimeter=0;" edge="1" parent="1" source="QpnUCRbKRPAIzIrftrcw-5" target="QpnUCRbKRPAIzIrftrcw-6">
          <mxGeometry relative="1" as="geometry" />
        </mxCell>
        <mxCell id="QpnUCRbKRPAIzIrftrcw-35" value="NAO" style="edgeLabel;html=1;align=center;verticalAlign=middle;resizable=0;points=[];" vertex="1" connectable="0" parent="QpnUCRbKRPAIzIrftrcw-34">
          <mxGeometry x="-0.3003" relative="1" as="geometry">
            <mxPoint as="offset" />
          </mxGeometry>
        </mxCell>
        <mxCell id="QpnUCRbKRPAIzIrftrcw-36" style="edgeStyle=orthogonalEdgeStyle;rounded=0;orthogonalLoop=1;jettySize=auto;html=1;exitX=0.5;exitY=1;exitDx=0;exitDy=0;entryX=0.5;entryY=0;entryDx=0;entryDy=0;entryPerimeter=0;" edge="1" parent="1" source="QpnUCRbKRPAIzIrftrcw-6" target="QpnUCRbKRPAIzIrftrcw-7">
          <mxGeometry relative="1" as="geometry" />
        </mxCell>
        <mxCell id="QpnUCRbKRPAIzIrftrcw-37" style="edgeStyle=orthogonalEdgeStyle;rounded=0;orthogonalLoop=1;jettySize=auto;html=1;exitX=0.5;exitY=1;exitDx=0;exitDy=0;exitPerimeter=0;entryX=0.5;entryY=0;entryDx=0;entryDy=0;entryPerimeter=0;" edge="1" parent="1" source="QpnUCRbKRPAIzIrftrcw-7" target="QpnUCRbKRPAIzIrftrcw-8">
          <mxGeometry relative="1" as="geometry" />
        </mxCell>
        <mxCell id="QpnUCRbKRPAIzIrftrcw-38" value="NAO" style="edgeLabel;html=1;align=center;verticalAlign=middle;resizable=0;points=[];" vertex="1" connectable="0" parent="QpnUCRbKRPAIzIrftrcw-37">
          <mxGeometry x="-0.2" y="2" relative="1" as="geometry">
            <mxPoint as="offset" />
          </mxGeometry>
        </mxCell>
        <mxCell id="QpnUCRbKRPAIzIrftrcw-39" style="edgeStyle=orthogonalEdgeStyle;rounded=0;orthogonalLoop=1;jettySize=auto;html=1;exitX=0.5;exitY=1;exitDx=0;exitDy=0;exitPerimeter=0;entryX=1;entryY=0.5;entryDx=0;entryDy=0;entryPerimeter=0;" edge="1" parent="1" source="QpnUCRbKRPAIzIrftrcw-24" target="QpnUCRbKRPAIzIrftrcw-13">
          <mxGeometry relative="1" as="geometry" />
        </mxCell>
      </root>
    </mxGraphModel>
  </diagram>
</mxfile>
